<svg width="264" height="264" viewBox="0 0 264 264" fill="none" xmlns="http://www.w3.org/2000/svg">
	<path d="M0 55C0 39.5361 12.536 27 28 27H236C251.464 27 264 39.536 264 55V208.78C264 224.244 251.464 236.78 236 236.78H0V55Z" fill="#020D16"/>
	<path fill-rule="evenodd" clip-rule="evenodd" d="M235.361 37H28.9778C23.7815 37 19.3194 38.8074 15.5917 42.4222C11.8639 46.037 10 50.4426 10 55.6389V89.5278H20.5056V55.6389C20.5056 53.3796 21.3528 51.4593 23.0472 49.8778C24.7417 48.2963 26.7185 47.5056 28.9778 47.5056H235.361C237.846 47.5056 239.823 48.2963 241.292 49.8778C242.76 51.4593 243.494 53.3796 243.494 55.6389V208.139C243.494 210.398 242.76 212.319 241.292 213.9C239.823 215.481 237.846 216.272 235.361 216.272H146.572V226.778H235.361C240.557 226.778 244.963 224.97 248.578 221.356C252.193 217.741 254 213.335 254 208.139V55.6389C254 50.4426 252.193 46.037 248.578 42.4222C244.963 38.8074 240.557 37 235.361 37ZM33.0444 226.778H10V203.394C16.3259 203.394 21.7481 205.71 26.2667 210.342C30.7852 214.973 33.0444 220.452 33.0444 226.778ZM77.7778 226.778H67.2722C67.2722 210.737 61.7935 197.125 50.8361 185.942C39.8787 174.758 26.2667 169.054 10 168.828V158.322C21.0754 158.322 31.1853 160.647 40.3298 165.297C43.9705 178.395 54.731 188.528 68.1801 191.266C74.5785 201.736 77.7778 213.573 77.7778 226.778ZM101.531 181.085C102.471 182.948 103.365 184.849 104.211 186.789C109.633 199.215 112.344 212.544 112.344 226.778H122.85C122.85 210.963 119.913 196.221 114.039 182.553C112.354 178.633 110.493 174.852 108.455 171.211C106.701 174.883 104.352 178.216 101.531 181.085ZM39 117.245C29.7083 114.808 20.0416 113.589 10 113.589V124.094C20.1555 124.094 29.8221 125.475 39 128.235V117.245Z" fill="#DEDEDE"/>
	<path fill-rule="evenodd" clip-rule="evenodd" d="M66.3844 165H83.2307V148.184H66.3844V165ZM51 99.2455C51 95.4275 51.5111 91.9009 52.5282 88.6707C53.5453 85.4456 55.048 82.6856 57.0464 80.3907C59.0347 78.0958 61.5596 76.2967 64.6109 74.9729C67.6622 73.6593 71.1838 73 75.1704 73C83.798 73 90.2482 75.2284 94.5211 79.6904C98.794 84.1473 100.93 90.1171 100.93 97.5947C100.93 101.162 100.384 104.474 99.2847 107.531C98.1807 110.587 96.1669 113.899 93.2382 117.472L88.3571 123.206C86.2411 125.67 84.7129 127.919 83.7776 129.958C82.8422 131.998 82.3771 134.63 82.3771 137.86V139.766H67.238V134.798C67.238 130.551 67.8053 126.968 68.9451 124.034C70.0849 121.101 72.0373 118.024 74.8024 114.794L79.4433 109.314C81.1504 107.362 82.3516 105.261 83.0467 103.007C83.7367 100.758 84.0842 98.3562 84.0842 95.8058C84.0842 92.5807 83.3891 89.9689 82.0091 87.9704C80.624 85.9771 78.5489 84.9753 75.7838 84.9753C72.6916 84.9753 70.4733 86.2736 69.1291 88.8649C67.7849 91.4562 67.1153 94.8295 67.1153 98.9951V102.179H51V99.2455Z" fill="white"/>
	<path fill-rule="evenodd" clip-rule="evenodd" d="M122.607 165H139.453V148.184H122.607V165ZM107.222 99.2455C107.222 95.4275 107.733 91.9009 108.75 88.6707C109.768 85.4456 111.275 82.6856 113.269 80.3907C115.262 78.0958 117.787 76.2967 120.838 74.9729C123.89 73.6593 127.411 73 131.398 73C140.02 73 146.476 75.2284 150.748 79.6904C155.016 84.1473 157.153 90.1171 157.153 97.5947C157.153 101.162 156.606 104.474 155.512 107.531C154.413 110.587 152.394 113.899 149.46 117.472L144.584 123.206C142.463 125.67 140.94 127.919 140 129.958C139.064 131.998 138.599 134.63 138.599 137.86V139.766H123.46V134.798C123.46 130.551 124.028 126.968 125.172 124.034C126.312 121.101 128.265 118.024 131.03 114.794L135.671 109.314C137.378 107.362 138.579 105.261 139.269 103.007C139.964 100.758 140.306 98.3562 140.306 95.8058C140.306 92.5807 139.616 89.9689 138.236 87.9704C136.846 85.9771 134.771 84.9753 132.006 84.9753C128.914 84.9753 126.696 86.2736 125.356 88.8649C124.012 91.4562 123.343 94.8295 123.343 98.9951V102.179H107.222V99.2455V99.2455Z" fill="#ED1B24"/>
	<path fill-rule="evenodd" clip-rule="evenodd" d="M178.829 165H195.675V148.184H178.829V165ZM163.444 99.2455C163.444 95.4275 163.95 91.9009 164.973 88.6707C165.99 85.4456 167.492 82.6856 169.486 80.3907C171.484 78.0958 174.004 76.2967 177.055 74.9729C180.112 73.6593 183.628 73 187.615 73C196.242 73 202.693 75.2284 206.966 79.6904C211.238 84.1473 213.375 90.1171 213.375 97.5947C213.375 101.162 212.828 104.474 211.729 107.531C210.63 110.587 208.616 113.899 205.688 117.472L200.802 123.206C198.686 125.67 197.157 127.919 196.227 129.958C195.287 131.998 194.822 134.63 194.822 137.86V139.766H179.682V134.798C179.682 130.551 180.25 126.968 181.39 124.034C182.529 121.101 184.482 118.024 187.252 114.794L191.888 109.314C193.595 107.362 194.801 105.261 195.491 103.007C196.181 100.758 196.529 98.3562 196.529 95.8058C196.529 92.5807 195.839 89.9689 194.454 87.9704C193.068 85.9771 190.993 84.9753 188.228 84.9753C185.136 84.9753 182.918 86.2736 181.574 88.8649C180.234 91.4562 179.56 94.8295 179.56 98.9951V102.179H163.444V99.2455V99.2455Z" fill="#00ADEF"/>
</svg>
