<?xml version="1.0" encoding="UTF-8" standalone="no"?>
<svg
   width="350"
   height="350"
   viewBox="0 0 350 350"
   fill="none"
   version="1.1"
   id="svg5"
   sodipodi:docname="icon-rounded.svg"
   inkscape:version="1.3.2 (091e20e, 2023-11-25, custom)"
   xmlns:inkscape="http://www.inkscape.org/namespaces/inkscape"
   xmlns:sodipodi="http://sodipodi.sourceforge.net/DTD/sodipodi-0.dtd"
   xmlns="http://www.w3.org/2000/svg"
   xmlns:svg="http://www.w3.org/2000/svg">
  <defs
     id="defs5" />
  <sodipodi:namedview
     id="namedview5"
     pagecolor="#505050"
     bordercolor="#ffffff"
     borderopacity="1"
     inkscape:showpageshadow="0"
     inkscape:pageopacity="0"
     inkscape:pagecheckerboard="1"
     inkscape:deskcolor="#d1d1d1"
     inkscape:zoom="1.5454569"
     inkscape:cx="311.23483"
     inkscape:cy="223.23496"
     inkscape:window-width="2560"
     inkscape:window-height="1361"
     inkscape:window-x="2551"
     inkscape:window-y="-9"
     inkscape:window-maximized="1"
     inkscape:current-layer="svg5" />
  <circle
     style="font-variation-settings:'wdth' 87, 'wght' 300;fill:#020d16;fill-opacity:1;fill-rule:evenodd;stroke-width:1.00157;stroke-miterlimit:10"
     id="path6"
     cx="175"
     cy="175"
     r="175" />
  <g
     id="g6"
     transform="translate(43,43.11)">
    <path
       d="M 0,55 C 0,39.5361 12.536,27 28,27 h 208 c 15.464,0 28,12.536 28,28 v 153.78 c 0,15.464 -12.536,28 -28,28 H 0 Z"
       fill="#020d16"
       id="path1" />
    <path
       fill-rule="evenodd"
       clip-rule="evenodd"
       d="M 235.361,37 H 28.9778 C 23.7815,37 19.3194,38.8074 15.5917,42.4222 11.8639,46.037 10,50.4426 10,55.6389 V 89.5278 H 20.5056 V 55.6389 c 0,-2.2593 0.8472,-4.1796 2.5416,-5.7611 1.6945,-1.5815 3.6713,-2.3722 5.9306,-2.3722 H 235.361 c 2.485,0 4.462,0.7907 5.931,2.3722 1.468,1.5815 2.202,3.5018 2.202,5.7611 V 208.139 c 0,2.259 -0.734,4.18 -2.202,5.761 -1.469,1.581 -3.446,2.372 -5.931,2.372 h -88.789 v 10.506 h 88.789 c 5.196,0 9.602,-1.808 13.217,-5.422 3.615,-3.615 5.422,-8.021 5.422,-13.217 V 55.6389 C 254,50.4426 252.193,46.037 248.578,42.4222 244.963,38.8074 240.557,37 235.361,37 Z M 33.0444,226.778 H 10 v -23.384 c 6.3259,0 11.7481,2.316 16.2667,6.948 4.5185,4.631 6.7777,10.11 6.7777,16.436 z m 44.7334,0 H 67.2722 c 0,-16.041 -5.4787,-29.653 -16.4361,-40.836 C 39.8787,174.758 26.2667,169.054 10,168.828 v -10.506 c 11.0754,0 21.1853,2.325 30.3298,6.975 3.6407,13.098 14.4012,23.231 27.8503,25.969 6.3984,10.47 9.5977,22.307 9.5977,35.512 z m 23.7532,-45.693 c 0.94,1.863 1.834,3.764 2.68,5.704 5.422,12.426 8.133,25.755 8.133,39.989 h 10.506 c 0,-15.815 -2.937,-30.557 -8.811,-44.225 -1.685,-3.92 -3.546,-7.701 -5.584,-11.342 -1.754,3.672 -4.103,7.005 -6.924,9.874 z M 39,117.245 c -9.2917,-2.437 -18.9584,-3.656 -29,-3.656 v 10.505 c 10.1555,0 19.8221,1.381 29,4.141 z"
       fill="#dedede"
       id="path2" />
    <path
       fill-rule="evenodd"
       clip-rule="evenodd"
       d="M 66.3844,165 H 83.2307 V 148.184 H 66.3844 Z M 51,99.2455 c 0,-3.818 0.5111,-7.3446 1.5282,-10.5748 1.0171,-3.2251 2.5198,-5.9851 4.5182,-8.28 1.9883,-2.2949 4.5132,-4.094 7.5645,-5.4178 C 67.6622,73.6593 71.1838,73 75.1704,73 c 8.6276,0 15.0778,2.2284 19.3507,6.6904 4.2729,4.4569 6.4089,10.4267 6.4089,17.9043 0,3.5673 -0.546,6.8793 -1.6453,9.9363 -1.104,3.056 -3.1178,6.368 -6.0465,9.941 l -4.8811,5.734 c -2.116,2.464 -3.6442,4.713 -4.5795,6.752 -0.9354,2.04 -1.4005,4.672 -1.4005,7.902 v 1.906 H 67.238 v -4.968 c 0,-4.247 0.5673,-7.83 1.7071,-10.764 1.1398,-2.933 3.0922,-6.01 5.8573,-9.24 l 4.6409,-5.48 c 1.7071,-1.952 2.9083,-4.053 3.6034,-6.307 0.69,-2.249 1.0375,-4.6508 1.0375,-7.2012 0,-3.2251 -0.6951,-5.8369 -2.0751,-7.8354 -1.3851,-1.9933 -3.4602,-2.9951 -6.2253,-2.9951 -3.0922,0 -5.3105,1.2983 -6.6547,3.8896 -1.3442,2.5913 -2.0138,5.9646 -2.0138,10.1302 v 3.1839 H 51 Z"
       fill="#ffffff"
       id="path3" />
    <path
       fill-rule="evenodd"
       clip-rule="evenodd"
       d="m 122.607,165 h 16.846 V 148.184 H 122.607 Z M 107.222,99.2455 c 0,-3.818 0.511,-7.3446 1.528,-10.5748 1.018,-3.2251 2.525,-5.9851 4.519,-8.28 1.993,-2.2949 4.518,-4.094 7.569,-5.4178 C 123.89,73.6593 127.411,73 131.398,73 c 8.622,0 15.078,2.2284 19.35,6.6904 4.268,4.4569 6.405,10.4267 6.405,17.9043 0,3.5673 -0.547,6.8793 -1.641,9.9363 -1.099,3.056 -3.118,6.368 -6.052,9.941 l -4.876,5.734 c -2.121,2.464 -3.644,4.713 -4.584,6.752 -0.936,2.04 -1.401,4.672 -1.401,7.902 v 1.906 H 123.46 v -4.968 c 0,-4.247 0.568,-7.83 1.712,-10.764 1.14,-2.933 3.093,-6.01 5.858,-9.24 l 4.641,-5.48 c 1.707,-1.952 2.908,-4.053 3.598,-6.307 0.695,-2.249 1.037,-4.6508 1.037,-7.2012 0,-3.2251 -0.69,-5.8369 -2.07,-7.8354 -1.39,-1.9933 -3.465,-2.9951 -6.23,-2.9951 -3.092,0 -5.31,1.2983 -6.65,3.8896 -1.344,2.5913 -2.013,5.9646 -2.013,10.1302 v 3.1839 h -16.121 z"
       fill="#ed1b24"
       id="path4" />
    <path
       fill-rule="evenodd"
       clip-rule="evenodd"
       d="m 178.829,165 h 16.846 V 148.184 H 178.829 Z M 163.444,99.2455 c 0,-3.818 0.506,-7.3446 1.529,-10.5748 1.017,-3.2251 2.519,-5.9851 4.513,-8.28 1.998,-2.2949 4.518,-4.094 7.569,-5.4178 3.057,-1.3136 6.573,-1.9729 10.56,-1.9729 8.627,0 15.078,2.2284 19.351,6.6904 4.272,4.4569 6.409,10.4267 6.409,17.9043 0,3.5673 -0.547,6.8793 -1.646,9.9363 -1.099,3.056 -3.113,6.368 -6.041,9.941 l -4.886,5.734 c -2.116,2.464 -3.645,4.713 -4.575,6.752 -0.94,2.04 -1.405,4.672 -1.405,7.902 v 1.906 h -15.14 v -4.968 c 0,-4.247 0.568,-7.83 1.708,-10.764 1.139,-2.933 3.092,-6.01 5.862,-9.24 l 4.636,-5.48 c 1.707,-1.952 2.913,-4.053 3.603,-6.307 0.69,-2.249 1.038,-4.6508 1.038,-7.2012 0,-3.2251 -0.69,-5.8369 -2.075,-7.8354 -1.386,-1.9933 -3.461,-2.9951 -6.226,-2.9951 -3.092,0 -5.31,1.2983 -6.654,3.8896 -1.34,2.5913 -2.014,5.9646 -2.014,10.1302 v 3.1839 h -16.116 z"
       fill="#00adef"
       id="path5" />
  </g>
</svg>
