<?xml version="1.0" encoding="UTF-8" standalone="no"?>
<svg
   xmlns:dc="http://purl.org/dc/elements/1.1/"
   xmlns:cc="http://creativecommons.org/ns#"
   xmlns:rdf="http://www.w3.org/1999/02/22-rdf-syntax-ns#"
   xmlns:svg="http://www.w3.org/2000/svg"
   xmlns="http://www.w3.org/2000/svg"
   xmlns:xlink="http://www.w3.org/1999/xlink"
   xmlns:sodipodi="http://sodipodi.sourceforge.net/DTD/sodipodi-0.dtd"
   xmlns:inkscape="http://www.inkscape.org/namespaces/inkscape"
   version="1.1"
   id="Layer_1"
   x="0px"
   y="0px"
   viewBox="0 0 120 120"
   xml:space="preserve"
   sodipodi:docname="apple.svg"
   width="120"
   height="120"
   inkscape:version="1.0.1 (3bc2e813f5, 2020-09-07)"><metadata
     id="metadata33"><rdf:RDF><cc:Work
         rdf:about=""><dc:format>image/svg+xml</dc:format><dc:type
           rdf:resource="http://purl.org/dc/dcmitype/StillImage" /><dc:title></dc:title></cc:Work></rdf:RDF></metadata><defs
     id="defs31"><linearGradient
       inkscape:collect="always"
       id="linearGradient884"><stop
         style="stop-color:#ef263f;stop-opacity:1"
         offset="0"
         id="stop880" /><stop
         style="stop-color:#fd5b73;stop-opacity:1"
         offset="1"
         id="stop882" /></linearGradient><defs
       id="defs5"><path
         id="SVGID_1_"
         d="m 18.43,0 h 86.02 c 10.18,0 18.43,8.25 18.43,18.43 v 86.02 c 0,10.18 -8.25,18.43 -18.43,18.43 H 18.43 C 8.25,122.88 0,114.63 0,104.45 V 18.43 C 0,8.25 8.25,0 18.43,0 Z" /></defs><clipPath
       id="SVGID_2_"><use
         xlink:href="#SVGID_1_"
         style="overflow:visible"
         id="use7"
         x="0"
         y="0"
         width="100%"
         height="100%" /></clipPath><linearGradient
       inkscape:collect="always"
       xlink:href="#linearGradient884"
       id="linearGradient890"
       gradientUnits="userSpaceOnUse"
       x1="227.90417"
       y1="125.81168"
       x2="227.90417"
       y2="1.4916877"
       gradientTransform="matrix(0.96153841,0,0,0.96525103,-99.138619,-1.4398527)" /></defs><sodipodi:namedview
     pagecolor="#ffffff"
     bordercolor="#666666"
     borderopacity="1"
     objecttolerance="10"
     gridtolerance="10"
     guidetolerance="10"
     inkscape:pageopacity="0"
     inkscape:pageshadow="2"
     inkscape:window-width="1920"
     inkscape:window-height="1017"
     id="namedview29"
     showgrid="false"
     inkscape:zoom="2.4456412"
     inkscape:cx="76.184249"
     inkscape:cy="53.94281"
     inkscape:window-x="-8"
     inkscape:window-y="-8"
     inkscape:window-maximized="1"
     inkscape:current-layer="g26" /><style
     type="text/css"
     id="style2"><![CDATA[
	.st0{clip-path:url(#SVGID_2_);}
	.st1{fill:#FFFFFF;}
]]></style><g
     id="g26"><rect
       style="fill:url(#linearGradient890);fill-opacity:1;stroke:#a8b5ba;stroke-width:0"
       id="rect876"
       width="120"
       height="120"
       x="5e-07"
       y="5e-07"
       rx="20"
       ry="20" /><path
       class="st1"
       d="m 49.205647,83.557835 v -38.4 c 0,-1.44 0.8,-2.32 2.4,-2.64 l 33.12,-6.72 c 1.76,-0.32 2.72,0.48 2.88,2.4 v 29.28 c 0,2.4 -3.6,4 -10.8,4.8 -13.68,2.16 -11.52,25.2 7.2,18.96 7.2,-2.64 8.4,-9.6 8.4,-16.56 v -56.16 c 0,0 0,-4.8 -4.08,-3.6 l -40.8,8.4 c 0,0 -3.12,0.48 -3.12,4.32 v 48.72 c 0,2.4 -3.6,4 -10.8,4.8 -13.68,2.16 -11.52,25.200005 7.2,18.960005 7.2,-2.640005 8.4,-9.600005 8.4,-16.560005 z"
       id="path24" /></g></svg>
