<?xml version="1.0" encoding="UTF-8" standalone="no"?>
<svg
   xmlns:dc="http://purl.org/dc/elements/1.1/"
   xmlns:cc="http://creativecommons.org/ns#"
   xmlns:rdf="http://www.w3.org/1999/02/22-rdf-syntax-ns#"
   xmlns:svg="http://www.w3.org/2000/svg"
   xmlns="http://www.w3.org/2000/svg"
   xmlns:sodipodi="http://sodipodi.sourceforge.net/DTD/sodipodi-0.dtd"
   xmlns:inkscape="http://www.inkscape.org/namespaces/inkscape"
   height="24px"
   viewBox="0 0 24 24"
   width="24px"
   fill="#000000"
   version="1.1"
   id="svg6"
   sodipodi:docname="heart.svg"
   inkscape:version="1.0.1 (3bc2e813f5, 2020-09-07)">
  <metadata
     id="metadata12">
    <rdf:RDF>
      <cc:Work
         rdf:about="">
        <dc:format>image/svg+xml</dc:format>
        <dc:type
           rdf:resource="http://purl.org/dc/dcmitype/StillImage" />
      </cc:Work>
    </rdf:RDF>
  </metadata>
  <defs
     id="defs10" />
  <sodipodi:namedview
     pagecolor="#ffffff"
     bordercolor="#666666"
     borderopacity="1"
     objecttolerance="10"
     gridtolerance="10"
     guidetolerance="10"
     inkscape:pageopacity="0"
     inkscape:pageshadow="2"
     inkscape:window-width="1920"
     inkscape:window-height="1017"
     id="namedview8"
     showgrid="false"
     inkscape:zoom="16.784407"
     inkscape:cx="7.4187492"
     inkscape:cy="17.680097"
     inkscape:window-x="-8"
     inkscape:window-y="-8"
     inkscape:window-maximized="1"
     inkscape:current-layer="svg6"
     inkscape:document-rotation="0" />
  <path
     d="M0 0h24v24H0z"
     fill="none"
     id="path2" />
  <path
     d="M 17.4,1 C 15.312,1 13.308,1.972 12,3.508 10.692,1.972 8.688,1 6.6,1 2.904,1 0,3.904 0,7.6 0,12.136 4.08,15.832 10.26,21.448 L 12,23.02 13.74,21.436 C 19.92,15.832 24,12.136 24,7.6 24,3.904 21.096,1 17.4,1 Z M 12.12,19.66 12,19.78 11.88,19.66 C 6.168,14.488 2.4,11.068 2.4,7.6 2.4,5.2 4.2,3.4 6.6,3.4 c 1.848,0 3.648,1.188 4.284,2.832 h 2.244 C 13.752,4.588 15.552,3.4 17.4,3.4 c 2.4,0 4.2,1.8 4.2,4.2 0,3.468 -3.768,6.888 -9.48,12.06 z"
     id="path4"
     style="fill:#cccccc;fill-opacity:1;stroke-width:1.2" />
</svg>
