<?xml version="1.0" encoding="UTF-8" standalone="no"?>
<svg
   xmlns:dc="http://purl.org/dc/elements/1.1/"
   xmlns:cc="http://creativecommons.org/ns#"
   xmlns:rdf="http://www.w3.org/1999/02/22-rdf-syntax-ns#"
   xmlns:svg="http://www.w3.org/2000/svg"
   xmlns="http://www.w3.org/2000/svg"
   xmlns:sodipodi="http://sodipodi.sourceforge.net/DTD/sodipodi-0.dtd"
   xmlns:inkscape="http://www.inkscape.org/namespaces/inkscape"
   version="1.1"
   id="Layer_1"
   x="0px"
   y="0px"
   width="100%"
   height="100%"
   viewBox="0 0 192 192"
   xml:space="preserve"
   preserveAspectRatio="xMinYMin"
   sodipodi:docname="youtube.svg"
   inkscape:version="1.0.1 (3bc2e813f5, 2020-09-07)"><metadata
   id="metadata12"><rdf:RDF><cc:Work
       rdf:about=""><dc:format>image/svg+xml</dc:format><dc:type
         rdf:resource="http://purl.org/dc/dcmitype/StillImage" /><dc:title /></cc:Work></rdf:RDF></metadata><defs
   id="defs10">
	
	
	

		
	</defs><sodipodi:namedview
   pagecolor="#ffffff"
   bordercolor="#666666"
   borderopacity="1"
   objecttolerance="10"
   gridtolerance="10"
   guidetolerance="10"
   inkscape:pageopacity="0"
   inkscape:pageshadow="2"
   inkscape:window-width="1920"
   inkscape:window-height="1017"
   id="namedview8"
   showgrid="false"
   inkscape:zoom="3.1304206"
   inkscape:cx="103.57865"
   inkscape:cy="103.39152"
   inkscape:window-x="-8"
   inkscape:window-y="-8"
   inkscape:window-maximized="1"
   inkscape:current-layer="Layer_1"
   inkscape:document-rotation="0" />
<rect
   style="fill:#ffffff;fill-opacity:1;stroke:#a8b5ba;stroke-width:0"
   id="rect830"
   width="103.70826"
   height="103.70826"
   x="44.083534"
   y="43.764088" /><path
   id="XMLID_791_"
   style="fill:#ff0000;stroke-width:1.0909"
   d="M 95.797583,5.3348692e-5 A 95.999998,95.999973 0 0 0 0,96.000026 95.999998,95.999973 0 0 0 95.999998,192 95.999998,95.999973 0 0 0 192,96.000026 95.999998,95.999973 0 0 0 95.999998,5.3348692e-5 a 95.999998,95.999973 0 0 0 -0.202415,0 z M 95.999998,45.818222 c 27.719992,0 50.181812,22.461812 50.181812,50.181804 0,27.719994 -22.46182,50.181804 -50.181812,50.181804 -27.719999,0 -50.181817,-22.46181 -50.181817,-50.181804 0,-27.719992 22.461818,-50.181804 50.181817,-50.181804 z m 0,4.406249 c -25.243635,0 -45.775567,20.531926 -45.775567,45.775555 0,25.243634 20.531932,45.775564 45.775567,45.775564 25.243642,0 45.775572,-20.53193 45.775572,-45.775564 0,-25.243629 -20.53193,-45.775555 -45.775572,-45.775555 z M 78.545453,70.909125 121.0909,94.909118 78.545453,121.09093 Z" />
</svg>
